<?xml version="1.0" encoding="UTF-8" standalone="no"?>
<svg
   xmlns:dc="http://purl.org/dc/elements/1.1/"
   xmlns:cc="http://creativecommons.org/ns#"
   xmlns:rdf="http://www.w3.org/1999/02/22-rdf-syntax-ns#"
   xmlns:svg="http://www.w3.org/2000/svg"
   xmlns="http://www.w3.org/2000/svg"
   xmlns:sodipodi="http://sodipodi.sourceforge.net/DTD/sodipodi-0.dtd"
   xmlns:inkscape="http://www.inkscape.org/namespaces/inkscape"
   version="1.1"
   x="0px"
   y="0px"
   viewBox="0 0 100 100"
   enable-background="new 0 0 100 100"
   xml:space="preserve"
   id="svg10"
   sodipodi:docname="Application.svg"
   width="100"
   height="100"
   inkscape:version="1.0beta2 (3287d1b, 2019-12-24)"><metadata
     id="metadata16"><rdf:RDF><cc:Work
         rdf:about=""><dc:format>image/svg+xml</dc:format><dc:type
           rdf:resource="http://purl.org/dc/dcmitype/StillImage" /><dc:title></dc:title></cc:Work></rdf:RDF></metadata><defs
     id="defs14" /><sodipodi:namedview
     inkscape:pagecheckerboard="true"
     pagecolor="#ffffff"
     bordercolor="#666666"
     inkscape:document-rotation="0"
     borderopacity="1"
     objecttolerance="10"
     gridtolerance="10"
     guidetolerance="10"
     inkscape:pageopacity="1"
     inkscape:pageshadow="2"
     inkscape:window-width="1292"
     inkscape:window-height="828"
     id="namedview12"
     showgrid="false"
     inkscape:zoom="4.64"
     inkscape:cx="55.000372"
     inkscape:cy="61.422568"
     inkscape:window-x="2048"
     inkscape:window-y="467"
     inkscape:window-maximized="0"
     inkscape:current-layer="svg10" /><rect
     ry="11.485367"
     rx="11.353018"
     y="15.571174"
     x="3.5131741"
     height="68.857658"
     width="92.973648"
     id="rect840"
     style="opacity:0.992;fill:#ffffff;fill-opacity:1;stroke:#ffffff;stroke-width:1.02634;stroke-opacity:1" /><path
     inkscape:connector-curvature="0"
     id="path2"
     d="M 83.762,17.058 H 16.238 C 10.042,17.058 5,22.099 5,28.295 V 71.703 C 5,77.9 10.042,82.942 16.238,82.942 H 83.761 C 89.958,82.942 95,77.9 95,71.703 V 28.295 C 95,22.099 89.958,17.058 83.762,17.058 Z m -67.524,3.183 h 67.523 c 2.854,0 5.359,1.496 6.79,3.74 l -34.63,32.707 c -3.266,3.082 -8.576,3.082 -11.841,0 L 9.448,23.981 c 1.432,-2.244 3.937,-3.74 6.79,-3.74 z M 8.261,72.761 C 8.216,72.414 8.184,72.063 8.184,71.703 V 28.295 c 0,-0.358 0.031,-0.71 0.077,-1.057 L 32.361,50 Z m 75.501,6.997 H 16.238 c -2.854,0 -5.359,-1.495 -6.79,-3.739 l 25.232,-23.83 7.216,6.813 c 2.233,2.111 5.169,3.167 8.104,3.167 2.935,0 5.872,-1.056 8.105,-3.167 l 7.215,-6.813 25.231,23.829 c -1.43,2.245 -3.936,3.74 -6.789,3.74 z m 8.054,-51.463 v 43.408 c 0,0.361 -0.032,0.711 -0.077,1.058 L 67.639,50 91.74,27.24 c 0.044,0.346 0.076,0.698 0.076,1.055 z"
     style="fill:#000000;fill-opacity:1;opacity:0.99700002" /></svg>
